<?xml version="1.0" standalone="no"?>
<!DOCTYPE svg PUBLIC "-//W3C//DTD SVG 20010904//EN"
 "http://www.w3.org/TR/2001/REC-SVG-20010904/DTD/svg10.dtd">
<svg version="1.0" xmlns="http://www.w3.org/2000/svg"
 width="3840.000000pt" height="3840.000000pt" viewBox="0 0 3840.000000 3840.000000"
 preserveAspectRatio="xMidYMid meet">
<metadata>
Created by potrace 1.14, written by Peter Selinger 2001-2017
</metadata>
<g transform="translate(0.000000,3840.000000) scale(0.100000,-0.100000)"
fill="#000000" stroke="none">
<path d="M10378 29554 c-2 -1 -39 -5 -82 -8 -66 -5 -177 -21 -273 -40 -116
-23 -383 -120 -383 -138 0 -5 -6 -8 -13 -8 -7 0 -48 -21 -92 -47 -294 -171
-510 -422 -638 -740 -22 -55 -56 -158 -58 -180 -1 -5 -6 -19 -11 -33 -5 -14
-20 -92 -33 -175 -21 -130 -24 -174 -20 -335 4 -174 6 -203 19 -290 19 -132
29 -186 51 -270 9 -36 18 -69 19 -75 7 -32 30 -104 42 -132 8 -17 14 -36 14
-41 0 -39 210 -498 248 -544 8 -10 12 -18 7 -18 -4 0 -3 -6 3 -12 8 -10 127
-237 183 -349 5 -10 14 -29 21 -41 6 -13 38 -74 71 -138 32 -63 90 -173 127
-245 37 -71 112 -215 165 -320 54 -104 121 -235 150 -290 29 -55 101 -194 160
-310 59 -115 122 -237 140 -270 18 -33 85 -163 150 -290 65 -126 137 -266 160
-310 23 -44 86 -165 140 -270 54 -104 123 -239 155 -300 31 -60 101 -195 155
-300 54 -104 121 -235 150 -290 29 -55 98 -190 155 -300 56 -110 126 -245 155
-300 29 -55 123 -237 210 -405 243 -471 297 -574 308 -587 5 -7 7 -13 4 -13
-3 0 11 -30 31 -67 21 -38 48 -90 62 -118 14 -27 28 -51 33 -53 4 -2 7 -12 7
-22 0 -10 3 -20 8 -22 4 -1 54 -95 111 -208 57 -113 107 -209 111 -215 4 -5
71 -136 150 -290 78 -154 146 -284 150 -290 4 -5 45 -84 91 -175 45 -91 94
-183 108 -205 13 -22 23 -41 22 -43 -1 -1 29 -62 67 -135 70 -134 274 -528
334 -647 18 -36 35 -67 38 -70 4 -4 108 -207 149 -290 16 -32 47 -93 171 -330
125 -241 302 -582 410 -792 124 -242 243 -472 320 -618 44 -85 95 -184 113
-220 18 -36 35 -66 40 -68 4 -2 7 -12 7 -22 0 -10 3 -20 8 -22 4 -2 22 -32 40
-68 104 -205 326 -636 332 -645 6 -9 68 -129 335 -647 87 -171 216 -420 265
-513 26 -49 91 -175 145 -280 180 -348 207 -400 216 -410 5 -5 9 -15 9 -23 0
-7 17 -44 39 -80 21 -37 97 -182 168 -322 72 -140 153 -298 180 -350 67 -126
315 -606 438 -845 53 -104 116 -226 140 -270 23 -44 86 -165 140 -270 145
-282 240 -467 305 -590 32 -60 99 -191 150 -290 51 -99 120 -232 153 -295 32
-63 95 -185 140 -270 126 -243 250 -455 293 -497 8 -8 14 -18 14 -22 0 -4 10
-19 21 -32 12 -13 33 -40 48 -59 43 -57 72 -89 156 -172 249 -246 549 -393
870 -425 158 -16 390 -3 493 26 18 5 35 10 37 10 15 2 61 15 70 20 6 3 15 6
20 8 6 1 21 4 35 7 14 3 79 33 145 66 195 97 393 259 537 440 33 41 67 84 77
95 20 24 126 189 171 265 35 60 183 340 330 625 51 99 121 235 157 302 35 67
64 126 64 130 1 4 4 13 9 18 4 6 38 69 75 140 37 72 102 195 143 275 42 80 77
147 77 150 0 3 6 14 12 25 18 34 97 183 171 325 38 74 77 149 86 165 9 17 16
35 16 42 0 6 4 13 8 15 4 2 20 28 34 58 15 30 76 150 136 265 60 116 148 287
197 380 48 94 116 224 150 290 34 66 104 201 155 300 51 99 119 230 151 291
32 62 93 181 136 265 43 85 80 156 83 159 3 3 24 43 47 90 23 47 64 126 90
175 26 50 105 203 176 340 71 138 162 313 202 390 40 77 114 221 165 320 51
99 112 216 135 260 23 44 86 166 140 270 53 105 102 196 107 203 6 6 7 12 3
12 -4 0 -3 6 3 13 10 12 53 94 197 372 36 71 71 135 77 142 5 7 11 18 12 25 1
7 37 81 80 163 139 266 202 387 289 555 187 363 209 405 219 417 5 7 11 18 12
26 1 8 9 25 17 38 8 13 55 103 103 199 49 96 92 180 96 185 4 6 60 114 125
240 65 127 139 271 165 320 26 50 96 185 155 300 59 116 128 248 152 294 25
46 90 172 145 280 55 108 131 255 168 326 116 223 179 344 270 520 147 286
259 504 325 630 34 66 104 201 155 300 51 99 116 225 145 280 29 55 94 181
145 280 51 99 118 230 150 290 32 61 101 196 155 300 54 105 123 240 155 300
32 61 95 182 140 270 46 88 109 210 140 270 32 61 104 200 160 310 56 110 126
245 155 300 29 55 96 186 150 290 54 105 123 240 155 300 31 61 99 191 150
290 106 206 198 383 296 570 37 72 74 144 81 160 8 17 18 37 23 45 6 8 18 33
29 55 11 22 44 86 74 143 30 56 53 102 51 102 -2 0 9 21 24 48 16 26 70 128
120 227 50 99 107 209 126 245 39 74 139 272 141 280 1 3 14 32 29 65 47 103
114 299 151 437 36 139 41 162 50 242 4 28 8 52 10 56 17 27 25 418 12 540
-47 408 -208 751 -472 1002 -68 65 -183 158 -196 158 -4 0 -14 6 -21 13 -16
15 -70 46 -173 99 -124 63 -274 112 -480 154 -11 2 -42 6 -70 9 -27 3 -63 8
-80 11 -27 6 -17822 14 -17827 8z"/>
</g>
</svg>
